<?xml version="1.0" encoding="UTF-8" standalone="no"?>
<!-- Created with Inkscape (http://www.inkscape.org/) -->

<svg class="fill:[#265E78]"
   xmlns:dc="http://purl.org/dc/elements/1.1/"
   xmlns:cc="http://creativecommons.org/ns#"
   xmlns:rdf="http://www.w3.org/1999/02/22-rdf-syntax-ns#"
   xmlns:svg="http://www.w3.org/2000/svg"
   xmlns="http://www.w3.org/2000/svg"
   xmlns:sodipodi="http://sodipodi.sourceforge.net/DTD/sodipodi-0.dtd"
   xmlns:inkscape="http://www.inkscape.org/namespaces/inkscape"
   width="210mm"
   height="297mm"
   viewBox="0 0 210 297"
   version="1.1"
   id="svg3631"
   inkscape:version="0.92.4 (5da689c313, 2019-01-14)"
   sodipodi:docname="rabbit silhouette.svg">
  <defs
     id="defs3625"><clipPath
   clipPathUnits="userSpaceOnUse"
   id="clipPath18">
  <path
     d="M 0,600.949 H 847.559 V 0 H 0 Z"
     id="path16"
     inkscape:connector-curvature="0" />
</clipPath>
<linearGradient
   id="a"
   x1="104.73"
   x2="494.51999"
   y1="335.72"
   y2="895.84003"
   gradientUnits="userSpaceOnUse">
  <stop
     stop-color="#265E78"
     offset="0"
     id="stop2" />
  <stop
     stop-color="#265E78"
     offset="1"
     id="stop4" />
</linearGradient>
<clipPath
   id="clipEmfPath1"
   clipPathUnits="userSpaceOnUse">
  <path
     id="path825"
     d="  M 0,0   L 1333.3501,0   L 1333.3501,1333.3501   L 0,1333.3501   z" />
</clipPath>
<pattern
   y="0"
   x="0"
   height="6"
   width="6"
   patternUnits="userSpaceOnUse"
   id="EMFhbasepattern" />
<clipPath
   clipPathUnits="userSpaceOnUse"
   id="clipPath20">
  <path
     d="M 0,612.288 H 612.288 V 0 H 0 Z"
     id="path18"
     inkscape:connector-curvature="0" />
</clipPath>

	
	

		
		
	
			
		
				
				
			
					
					
					
					
					
					
					
					
					
					
					
					
					
					
					
					
					
					
					
					
					
					
					
					
					
					
					
					
					
					
					
					
					
					
					
					
					
					
					
					
					
					
					
					
					
					
					
					
					
					
					
					
					
					
					
					
					
					
					
					
					
					
					
					
					
					
					
					
					
					
					
					
					
					
					
					
					
					
					
					
					
					
					
					
					
					
					
					
					
					
					
					
					
					
					
					
					
					
					
					
					
					
					
					
					
					
					
					
					
					
					
					
					
					
					
					
					
					
					
					
					
					
					
					
					
					
					
					
					
					
					
					
					
					
					
					
					
					
					
					
					
					
					
					
					
					
					
					
					
					
					
					
					
					
					
					
					
					
					
					
					
					
					
					
					
					
					
					
					
					
					
					
					
					
					
					
					
					
					
					
					
					
					
					
					
					
					
					
					
					
					
					
					
					
					
					
					
					
					
					
					
					
					
					
					
					
					
					
					
					
					
					
					
					
					
				
					
					
					
					
					
					
					
					
					
					
					
					
					
					
					
					
					
					
					
					
					
					
					
					
					
					
					
					
					
					
					
					
					
					
					
					
					
					
					
					
					
					
					
					
					
					
					
					
					
					
					
					
					
					
					
					
					
					
					
					
					
					
					
					
					
					
					
					
					
					
					
					
					
					
					
					
					
					
					
					
					
					
					
					
					
					
					
					
					
					
					
					
					
					
					
					
					
					
					
					
					
					
					
					
					
					
					
					
					
					
					
					
					
					
					
					
					
					
					
					
					
					
					
					
					
					
					
					
					
					
					
					
					
					
					
					
					
					
					
					
					
					
					
					
					
					
					
					
					
					
					
					
					
					
					
					
					
				<clipPath
   clipPathUnits="userSpaceOnUse"
   id="clipPath76-2">
  <path
     d="M 0,619.437 H 566.93 V 0 H 0 Z"
     id="path74-1"
     inkscape:connector-curvature="0" />
</clipPath>
</defs>
  <sodipodi:namedview
     id="base"
     pagecolor="#ffffff"
     bordercolor="#666666"
     borderopacity="1.0"
     inkscape:pageopacity="0.0"
     inkscape:pageshadow="2"
     inkscape:zoom="0.42318918"
     inkscape:cx="965.19312"
     inkscape:cy="318.48584"
     inkscape:document-units="mm"
     inkscape:current-layer="g1609"
     showgrid="false"
     showguides="true"
     inkscape:guide-bbox="true"
     inkscape:window-width="1920"
     inkscape:window-height="1001"
     inkscape:window-x="-9"
     inkscape:window-y="-9"
     inkscape:window-maximized="1"
     inkscape:snap-global="false">
    <sodipodi:guide
       position="72.922013,252.88982"
       orientation="0,1"
       id="guide4178"
       inkscape:locked="false" />
    <sodipodi:guide
       position="99.099147,43.94019"
       orientation="0,1"
       id="guide4180"
       inkscape:locked="false" />
  </sodipodi:namedview>
  <metadata
     id="metadata3628">
    <rdf:RDF>
      <cc:Work
         rdf:about="">
        <dc:format>image/svg+xml</dc:format>
        <dc:type
           rdf:resource="http://purl.org/dc/dcmitype/StillImage" />
        <dc:title></dc:title>
      </cc:Work>
    </rdf:RDF>
  </metadata>
  <g
     inkscape:label="Layer 1"
     inkscape:groupmode="layer"
     id="layer1">
    <g
       id="g11993"
       transform="translate(0.01320793,-14.655723)">
      <g
         id="g1437"
         transform="translate(244.51157,-309.57166)">
        <g
           id="g1611"
           transform="matrix(0.33072917,0,0,-0.33072917,-17.272713,804.12955)">
          <g
             id="g1609"
             transform="matrix(0.24,0,0,0.24,0.8,16.8)">
            <path
               inkscape:connector-curvature="0"
               d="m -1396.9064,5204.0838 c -39.9443,0.5959 -70.9347,-18.1079 -70.9347,-56.247 0,-46.9391 -11.8703,-246.4219 5.7319,-310.9652 17.6021,-64.5432 88.0455,-158.9597 140.7927,-223.0135 41.0697,-49.8717 17.7336,-170.0704 17.7336,-228.7443 0,-58.6738 -11.8185,-105.6863 -35.288,-105.6863 -23.4695,0 -58.5718,-23.4622 -82.0413,-46.931 -23.4696,-23.4687 -46.9718,-52.8451 -76.3066,-29.3768 -29.335,23.4683 -82.2045,46.8819 -176.0827,64.4862 -93.8781,17.6041 -252.2383,0.095 -351.9859,-35.1089 -99.7475,-35.2043 -311.0467,-228.8667 -369.7206,-316.8754 -58.6738,-88.0128 -64.4412,-357.8431 -58.5759,-398.9168 5.8653,-41.0738 -11.8624,-70.4943 -41.2002,-35.2879 -29.3377,35.2062 -52.6617,17.5544 -52.6617,17.5544 0,0 -29.3768,-58.6126 -29.3768,-87.9516 0,-29.339 11.6434,-58.576 11.6434,-58.576 0,0 -46.9309,-35.2842 -46.9309,-58.7554 0,-23.4711 46.9716,-64.5677 76.3066,-99.772 29.3348,-35.2043 129.0987,-105.6415 170.1725,-99.772 41.0736,5.8694 117.3679,0.049 146.7069,-17.5545 29.339,-17.6037 99.715,-41.0655 187.7236,-46.9308 88.0087,-5.8655 334.3736,-23.4659 398.9169,-23.4659 64.5431,0 82.2615,11.6834 111.5965,41.0207 29.3348,29.3373 -23.5973,64.6125 -41.2002,105.6863 -17.603,41.0737 58.7513,29.2415 82.2209,35.1088 23.4695,5.8674 88.078,46.9309 129.1518,46.9309 41.0736,0 35.145,-41.0166 87.9515,-64.4861 52.8064,-23.4696 129.0499,-99.6823 187.7237,-111.4171 58.6739,-11.7347 193.62979,-0.049 240.56886,17.5545 46.93906,17.6037 41.0696,58.6126 0,87.9516 -41.06973,29.3389 -140.74794,82.2575 -158.34801,111.5965 -17.60005,29.3389 -23.42585,64.5269 5.91107,93.8618 29.33691,29.3349 58.56774,17.5507 105.50681,41.0208 46.93906,23.4699 64.48615,93.9922 64.48615,135.0619 0,41.0697 5.58508,85.7123 23.46586,111.4171 14.98318,21.5414 20.80284,90.2724 21.6381,137.2115 0.89228,50.1246 -21.59038,62.1979 -39.19253,91.5327 -17.60215,29.335 17.55039,70.3964 41.02066,70.3964 23.47039,0 129.09882,17.6858 170.17246,35.288 41.07377,17.6021 82.25766,93.9474 111.59653,129.1517 29.339,35.2043 5.78381,111.413 -35.28787,134.8825 -41.07168,23.4695 -41.10228,88.078 -76.30657,129.1518 -35.2043,41.0738 -76.21272,129.0131 -111.41702,158.348 -35.2043,29.3349 -117.3681,52.8411 -146.7071,52.8411 -29.33887,0 -46.93087,0 -46.93087,23.4659 0,23.4695 -5.91106,52.6984 -5.91106,105.5068 0,52.8085 -66.25224,279.2564 -152.43767,416.6515 -17.9795,28.663 -47.143,22.0473 -82.221,11.8225 -23.2251,-6.7705 -35.1088,-17.7658 -35.1088,-94.0414 0,-76.2755 -46.9269,0.1279 -70.3964,41.2002 -23.4695,41.0724 -64.7022,88.0373 -117.5067,99.772 -9.9013,2.2002 -19.4425,3.266 -28.6603,3.4034 z"
               id="path2"
               style="stroke-width:4.07882023" />
          </g>
        </g>
      </g>
    </g>
  </g>
  <style
     id="style2336"
     type="text/css">
	.st0{fill:#DD8845;}
	.st1{fill:#FCFFC5;}
	.st2{fill:#94A48B;}
	.st3{fill:#FFFFFF;}
	.st4{fill:#5B8277;}
	.st5{fill:#FED77B;}
	.st6{fill:#193E3C;}
	.st7{fill:#69503D;}
</style>
</svg>
